<svg width="640" height="290" viewBox="0 0 640 290" fill="none" xmlns="http://www.w3.org/2000/svg" role="img" aria-labelledby="title desc">
  <title id="title">LeoninCS's GitHub Stats</title>
  <desc id="desc">GitHub profile statistics for LeoninCS.</desc>
  <defs>
    <filter id="shadow" x="-20%" y="-20%" width="140%" height="140%">
      <feDropShadow dx="0" dy="12" stdDeviation="18" flood-color="#000000" flood-opacity="0.28"/>
    </filter>
    <linearGradient id="ring" x1="468" y1="118" x2="582" y2="232" gradientUnits="userSpaceOnUse">
      <stop stop-color="#4ade80"/>
      <stop offset="1" stop-color="#f4b36b"/>
    </linearGradient>
  </defs>
  <style>
    .card { fill: #0d1117; }
    .title { fill: #d1d5db; font: 700 24px -apple-system, BlinkMacSystemFont, "Segoe UI", sans-serif; }
    .label { fill: #9ca3af; font: 700 17px -apple-system, BlinkMacSystemFont, "Segoe UI", sans-serif; }
    .value { fill: #a1a1aa; font: 800 18px -apple-system, BlinkMacSystemFont, "Segoe UI", sans-serif; }
    .grade { fill: #d6a56d; font: 900 34px -apple-system, BlinkMacSystemFont, "Segoe UI", sans-serif; }
  </style>
  <rect x="10" y="10" width="620" height="270" rx="8" class="card" filter="url(#shadow)"/>
  <text x="32" y="58" class="title">LeoninCS's GitHub Stats</text>
  
  
    <svg x="32" y="70" width="22" height="22" viewBox="0 0 24 24" fill="none" stroke="#4ade80" stroke-width="2.4" stroke-linecap="round" stroke-linejoin="round">
      <path d="M12 2.5l2.9 5.9 6.5.9-4.7 4.6 1.1 6.5L12 17.3l-5.8 3.1 1.1-6.5-4.7-4.6 6.5-.9L12 2.5z"/>
    </svg>
  <text x="68" y="86" class="label">Total Stars Earned:</text>
  <text x="330" y="86" class="value">306</text>

  
    <svg x="32" y="108" width="22" height="22" viewBox="0 0 24 24" fill="none" stroke="#4ade80" stroke-width="2.4" stroke-linecap="round" stroke-linejoin="round">
      <path d="M7.4 7.4a6.5 6.5 0 1 0 9.2 0"/><path d="M12 3v5"/><path d="M9.5 5.5L12 8l2.5-2.5"/>
    </svg>
  <text x="68" y="124" class="label">Total Commits:</text>
  <text x="330" y="124" class="value">1.8k</text>

  
    <svg x="32" y="146" width="22" height="22" viewBox="0 0 24 24" fill="none" stroke="#4ade80" stroke-width="2.4" stroke-linecap="round" stroke-linejoin="round">
      <circle cx="6" cy="5" r="2"/><circle cx="6" cy="19" r="2"/><circle cx="18" cy="5" r="2"/><path d="M6 7v10"/><path d="M8 5h4a6 6 0 0 1 6 6v6"/>
    </svg>
  <text x="68" y="162" class="label">Total PRs:</text>
  <text x="330" y="162" class="value">25</text>

  
    <svg x="32" y="184" width="22" height="22" viewBox="0 0 24 24" fill="none" stroke="#4ade80" stroke-width="2.4" stroke-linecap="round" stroke-linejoin="round">
      <circle cx="12" cy="12" r="9"/><path d="M12 7v6"/><circle cx="12" cy="17" r="1"/>
    </svg>
  <text x="68" y="200" class="label">Total Issues:</text>
  <text x="330" y="200" class="value">0</text>

  
    <svg x="32" y="222" width="22" height="22" viewBox="0 0 24 24" fill="none" stroke="#4ade80" stroke-width="2.4" stroke-linecap="round" stroke-linejoin="round">
      <path d="M7 3h10a2 2 0 0 1 2 2v16l-3-2-3 2-3-2-3 2V5a2 2 0 0 1 2-2z"/><path d="M9.5 7.5h5"/>
    </svg>
  <text x="68" y="238" class="label">Repositories:</text>
  <text x="330" y="238" class="value">16</text>
  <circle cx="525" cy="168" r="52" stroke="#30363d" stroke-width="9"/>
  <circle cx="525" cy="168" r="52" stroke="url(#ring)" stroke-width="9" stroke-linecap="round" stroke-dasharray="248.31 78.41" transform="rotate(-90 525 168)"/>
  <text x="525" y="180" text-anchor="middle" class="grade">B+</text>
</svg>
